<svg xmlns="http://www.w3.org/2000/svg" viewBox="0 0 64 64" width="64" height="64">
  <circle cx="32" cy="32" r="5" fill="#61DAFB"/>
  <path d="M32 0C14.33 0 0 14.33 0 32s14.33 32 32 32 32-14.33 32-32S49.67 0 32 0zm0 60C16.64 60 4 47.36 4 32S16.64 4 32 4s28 12.64 28 28-12.64 28-28 28z" fill="#61DAFB"/>
  <path d="M32 7c-1.26 0-2.45.3-3.53.84l2.69 3.71a5.96 5.96 0 0 1 1.5-.19c1.62 0 3.08 1.29 3.08 2.91s-1.46 2.91-3.08 2.91c-1.14 0-2.13-.59-2.7-1.46L28.85 19a5.93 5.93 0 0 1 3.06.81c1.62 0 3.08 1.29 3.08 2.91s-1.46 2.91-3.08 2.91c-1.14 0-2.13-.59-2.7-1.46l-3.1 4.41C25.55 33.7 26.75 34 28 34c3.31 0 6-2.69 6-6s-2.69-6-6-6z" fill="#61DAFB"/>
</svg>
