<?xml version="1.0" encoding="UTF-8"?>
<svg width="220" height="240" viewBox="0 0 220 240" xmlns="http://www.w3.org/2000/svg" fill="none">
  <defs>
    <!-- Enhanced drop shadow -->
    <filter id="shadow" x="-20%" y="-20%" width="140%" height="140%">
      <feOffset dx="0" dy="10" in="SourceAlpha" result="off"/>
      <feGaussianBlur in="off" stdDeviation="8" result="blur"/>
      <feFlood flood-color="#000" flood-opacity="0.1" result="flood"/>
      <feComposite in="flood" in2="blur" operator="in" result="shadow"/>
      <feComposite in="SourceGraphic" in2="shadow" operator="over"/>
    </filter>

    <!-- Card background gradient -->
    <linearGradient id="gradCard" x1="0" y1="0" x2="0" y2="1">
      <stop offset="0%" stop-color="#ffffff"/>
      <stop offset="100%" stop-color="#f7fafc"/>
    </linearGradient>

    <!-- Delicate dot pattern overlay -->
    <pattern id="patternDots" x="0" y="0" width="8" height="8" patternUnits="userSpaceOnUse">
      <circle cx="1" cy="1" r="1" fill="#cbd5e0"/>
    </pattern>

    <!-- Profile circle ring gradient -->
    <linearGradient id="gradProfile" x1="0" y1="0" x2="1" y2="1">
      <stop offset="0%" stop-color="#667eea"/>
      <stop offset="100%" stop-color="#764ba2"/>
    </linearGradient>

    <!-- Header highlight gradient -->
    <linearGradient id="gradHeader" x1="0" y1="0" x2="1" y2="0">
      <stop offset="0%" stop-color="#667eea"/>
      <stop offset="100%" stop-color="#764ba2"/>
    </linearGradient>

    <!-- Bullet gradient -->
    <radialGradient id="gradBullet" cx="50%" cy="50%" r="50%">
      <stop offset="0%" stop-color="#667eea"/>
      <stop offset="100%" stop-color="#764ba2"/>
    </radialGradient>
  </defs>

  <!-- Card base with shadow -->
  <rect x="10" y="20" width="200" height="200" rx="16" fill="url(#gradCard)" filter="url(#shadow)" />

  <!-- Dot pattern overlay -->
  <rect x="10" y="20" width="200" height="200" rx="16" fill="url(#patternDots)" opacity="0.1" />

  <!-- Profile ring and inner circle -->
  <circle cx="60" cy="70" r="28" fill="none" stroke="url(#gradProfile)" stroke-width="4"/>
  <circle cx="60" cy="70" r="24" fill="#EDF2F7" stroke="#CBD5E0" stroke-width="2"/>
  <circle cx="60" cy="70" r="8" fill="#A0AEC0"/>

  <!-- Name placeholder -->
  <rect x="100" y="60" width="90" height="12" rx="6" fill="#A0AEC0"/>
  <rect x="100" y="80" width="60" height="10" rx="5" fill="url(#gradHeader)"/>

  <!-- Section divider -->
  <line x1="20" y1="110" x2="200" y2="110" stroke="#E2E8F0" stroke-width="1"/>

  <!-- Text lines with gradient bullets -->
  <g fill="#718096">
    <circle cx="25" cy="130" r="4" fill="url(#gradBullet)"/>
    <rect x="35" y="127" width="150" height="6" rx="3"/>
    <circle cx="25" cy="150" r="4" fill="url(#gradBullet)"/>
    <rect x="35" y="147" width="130" height="6" rx="3"/>
    <circle cx="25" cy="170" r="4" fill="url(#gradBullet)"/>
    <rect x="35" y="167" width="140" height="6" rx="3"/>
    <circle cx="25" cy="190" r="4" fill="url(#gradBullet)"/>
    <rect x="35" y="187" width="120" height="6" rx="3"/>
  </g>
</svg>
