<?xml version="1.0" encoding="UTF-8"?>
<svg width="220" height="240" viewBox="0 0 220 240" xmlns="http://www.w3.org/2000/svg" fill="none">
  <defs>
    <!-- Drop shadow filter -->
    <filter id="shadow" x="-10%" y="-10%" width="120%" height="120%">
      <feDropShadow dx="0" dy="8" stdDeviation="8" flood-color="#000" flood-opacity="0.1"/>
    </filter>
    <!-- Header gradient -->
    <linearGradient id="gradHeader" x1="0" y1="0" x2="1" y2="0">
      <stop offset="0%" stop-color="#667eea"/>
      <stop offset="100%" stop-color="#764ba2"/>
    </linearGradient>
    <!-- Bullet gradient -->
    <radialGradient id="gradBullet" cx="50%" cy="50%" r="50%">
      <stop offset="0%" stop-color="#667eea"/>
      <stop offset="100%" stop-color="#764ba2"/>
    </radialGradient>
  </defs>

  <!-- Resume card with shadow -->
  <rect x="10" y="20" width="200" height="200" rx="16" fill="#F7FAFC" stroke="#E2E8F0" stroke-width="2" filter="url(#shadow)"/>

  <!-- Profile circle -->
  <circle cx="60" cy="70" r="24" fill="#EDF2F7" stroke="#CBD5E0" stroke-width="2"/>
  <circle cx="60" cy="70" r="8" fill="#A0AEC0"/>

  <!-- Name header line -->
  <rect x="100" y="60" width="90" height="12" rx="6" fill="#A0AEC0"/>
  <rect x="100" y="80" width="60" height="10" rx="5" fill="url(#gradHeader)"/>

  <!-- Section divider -->
  <line x1="20" y1="110" x2="200" y2="110" stroke="#E2E8F0" stroke-width="1"/>

  <!-- Text lines with bullet points -->
  <g fill="#718096">
    <circle cx="25" cy="130" r="4" fill="url(#gradBullet)"/>
    <rect x="35" y="127" width="150" height="6" rx="3"/>
    <circle cx="25" cy="150" r="4" fill="url(#gradBullet)"/>
    <rect x="35" y="147" width="130" height="6" rx="3"/>
    <circle cx="25" cy="170" r="4" fill="url(#gradBullet)"/>
    <rect x="35" y="167" width="140" height="6" rx="3"/>
    <circle cx="25" cy="190" r="4" fill="url(#gradBullet)"/>
    <rect x="35" y="187" width="120" height="6" rx="3"/>
  </g>
</svg>
